<svg width="24" height="24" viewBox="0 0 24 24" fill="none" xmlns="http://www.w3.org/2000/svg">
<path d="M15.4657 4.97018C15.6735 4.96561 15.8775 5.02585 16.0495 5.14262C16.2214 5.25939 16.3527 5.42691 16.4251 5.62175C16.4975 5.81659 16.5074 6.02911 16.4534 6.22983C16.3994 6.43055 16.2842 6.60938 16.1239 6.7416L10.0047 11.9838L16.1239 17.2241C16.2348 17.3057 16.3277 17.4092 16.3968 17.5283C16.4658 17.6474 16.5095 17.7795 16.5252 17.9163C16.5408 18.0531 16.5281 18.1916 16.4877 18.3232C16.4473 18.4548 16.3802 18.5767 16.2906 18.6812C16.2009 18.7857 16.0906 18.8705 15.9667 18.9304C15.8427 18.9903 15.7077 19.0239 15.5701 19.0292C15.4326 19.0345 15.2954 19.0115 15.1672 18.9613C15.0389 18.9111 14.9225 18.835 14.825 18.7378L7.81917 12.7435C7.70915 12.6497 7.62081 12.5331 7.56023 12.4018C7.49965 12.2704 7.46828 12.1275 7.46828 11.9829C7.46828 11.8382 7.49965 11.6953 7.56023 11.5639C7.62081 11.4326 7.70915 11.316 7.81917 11.2221L14.825 5.22209C15.002 5.06489 15.229 4.97552 15.4657 4.96995V4.97018Z" fill="white"/>
</svg>
