<svg width="24" height="24" viewBox="0 0 24 24" fill="none" xmlns="http://www.w3.org/2000/svg">
<g clip-path="url(#clip0_1_249)">
<path d="M21.75 3H8.21115C7.53364 3 6.89868 3.30032 6.4687 3.82542L0.169148 11.5254C-0.0564639 11.8015 -0.0564639 12.1985 0.169148 12.4746L6.46945 20.1753C6.89861 20.6997 7.53364 20.9999 8.21115 20.9999H21.7499C22.9907 20.9999 23.9999 19.9906 23.9999 18.75V5.24998C24 4.00923 22.9907 3 21.75 3ZM22.5 18.75C22.5 19.1638 22.1638 19.4999 21.75 19.4999H8.21115C7.98486 19.4999 7.77316 19.3996 7.63033 19.2253L1.71897 11.9999L7.62958 4.77535C7.77316 4.60029 7.98479 4.49994 8.21115 4.49994H21.7499C22.1638 4.49994 22.4999 4.83615 22.4999 5.24991C22.5 5.24998 22.5 18.75 22.5 18.75Z" fill="white"/>
<path d="M16.7197 7.71973L13.5 10.9395L10.2803 7.71973L9.21973 8.78026L12.4395 12L9.21973 15.2197L10.2803 16.2803L13.5 13.0605L16.7197 16.2803L17.7803 15.2197L14.5605 12L17.7803 8.78026L16.7197 7.71973Z" fill="white"/>
</g>
<defs>
<clipPath id="clip0_1_249">
<rect width="24" height="24" fill="white"/>
</clipPath>
</defs>
</svg>
