<svg width="24" height="24" viewBox="0 0 24 24" fill="none" xmlns="http://www.w3.org/2000/svg">
<path d="M12 18C11.8684 18.0008 11.7379 17.9755 11.6161 17.9258C11.4943 17.876 11.3834 17.8027 11.29 17.71L1.29 7.71C1.1017 7.5217 0.995911 7.2663 0.995911 7C0.995911 6.7337 1.1017 6.47831 1.29 6.29C1.47831 6.1017 1.7337 5.99591 2 5.99591C2.2663 5.99591 2.5217 6.1017 2.71 6.29L12 15.59L21.29 6.29C21.4783 6.1017 21.7337 5.99591 22 5.99591C22.2663 5.99591 22.5217 6.1017 22.71 6.29C22.8983 6.47831 23.0041 6.7337 23.0041 7C23.0041 7.2663 22.8983 7.5217 22.71 7.71L12.71 17.71C12.6166 17.8027 12.5057 17.876 12.3839 17.9258C12.2621 17.9755 12.1316 18.0008 12 18Z" fill="white"/>
</svg>
