<svg width="24" height="24" viewBox="0 0 24 24" fill="none" xmlns="http://www.w3.org/2000/svg">
<path d="M15 18.75H9C8.80109 18.75 8.61032 18.671 8.46967 18.5303C8.32902 18.3897 8.25 18.1989 8.25 18C8.25 17.8011 8.32902 17.6103 8.46967 17.4697C8.61032 17.329 8.80109 17.25 9 17.25H15C15.1989 17.25 15.3897 17.329 15.5303 17.4697C15.671 17.6103 15.75 17.8011 15.75 18C15.75 18.1989 15.671 18.3897 15.5303 18.5303C15.3897 18.671 15.1989 18.75 15 18.75Z" fill="white"/>
<path d="M18 22.75H6C4.74071 22.7484 3.53345 22.2475 2.643 21.357C1.75254 20.4666 1.25159 19.2593 1.25 18V10.922C1.24834 10.2095 1.40776 9.50577 1.71634 8.8635C2.02492 8.22123 2.47468 7.65701 3.032 7.21303L9.657 1.91303C10.3202 1.37734 11.147 1.08514 11.9995 1.08514C12.852 1.08514 13.6788 1.37734 14.342 1.91303L20.966 7.21303C21.5236 7.65682 21.9736 8.22097 22.2824 8.86326C22.5912 9.50556 22.7507 10.2094 22.749 10.922V18C22.7474 19.2591 22.2466 20.4663 21.3564 21.3567C20.4661 22.2471 19.2591 22.7482 18 22.75ZM3.97 8.38403C3.58845 8.68772 3.28053 9.07376 3.06926 9.51327C2.85799 9.95278 2.74885 10.4344 2.75 10.922V18C2.75106 18.8617 3.09381 19.6877 3.70307 20.297C4.31234 20.9062 5.13837 21.249 6 21.25H18C18.8616 21.249 19.6877 20.9062 20.2969 20.297C20.9062 19.6877 21.2489 18.8617 21.25 18V10.922C21.2512 10.4344 21.142 9.95278 20.9307 9.51327C20.7195 9.07376 20.4116 8.68772 20.03 8.38403L13.406 3.08403C13.008 2.76282 12.512 2.58764 12.0005 2.58764C11.489 2.58764 10.993 2.76282 10.595 3.08403L3.969 8.38403H3.97Z" fill="white"/>
</svg>
