<svg width="24" height="24" viewBox="0 0 24 24" fill="none" xmlns="http://www.w3.org/2000/svg">
<path fill-rule="evenodd" clip-rule="evenodd" d="M12.5951 4.50716C12.8673 4.19494 13.3411 4.16249 13.6533 4.43468L19.4929 9.52559C19.7286 9.73108 19.812 10.0613 19.7023 10.3541C19.5926 10.6469 19.3127 10.8409 19 10.8409H4.99997C4.58576 10.8409 4.24997 10.5051 4.24997 10.0909C4.24997 9.67671 4.58576 9.34092 4.99997 9.34092H16.9984L12.6676 5.56534C12.3554 5.29315 12.3229 4.81938 12.5951 4.50716Z" fill="white"/>
<path fill-rule="evenodd" clip-rule="evenodd" d="M11.4049 19.4928C11.1327 19.8051 10.6589 19.8375 10.3467 19.5653L4.50716 14.4744C4.27145 14.2689 4.18797 13.9387 4.29769 13.6459C4.40742 13.3531 4.6873 13.1591 5.00001 13.1591H19C19.4142 13.1591 19.75 13.4949 19.75 13.9091C19.75 14.3233 19.4142 14.6591 19 14.6591H7.00162L11.3324 18.4347C11.6446 18.7069 11.6771 19.1806 11.4049 19.4928Z" fill="white"/>
</svg>
