<svg width="26" height="26" viewBox="0 0 26 26" fill="none" xmlns="http://www.w3.org/2000/svg">
<path fill-rule="evenodd" clip-rule="evenodd" d="M19.6233 4.29656C20.8797 3.87776 22.075 5.07305 21.6562 6.32945L16.2185 22.6425C15.708 24.1737 13.5236 24.079 13.1043 22.5533C12.7239 21.1694 12.2358 19.4794 11.754 18.0494C11.5127 17.3332 11.2773 16.6953 11.0619 16.1987C10.954 15.9502 10.8558 15.7479 10.7692 15.5938C10.7262 15.5171 10.6891 15.4579 10.6583 15.4138C10.6431 15.3921 10.6307 15.3758 10.6212 15.3642C10.6165 15.3584 10.6128 15.3541 10.6102 15.3511L10.6071 15.3478L10.6063 15.347C10.6059 15.3466 10.6004 15.3411 10.5886 15.3315C10.5768 15.3219 10.5605 15.3095 10.5388 15.2944C10.4948 15.2637 10.4356 15.2265 10.359 15.1835C10.2048 15.0968 10.0024 14.9986 9.75397 14.8908C9.25737 14.6754 8.61949 14.44 7.9033 14.1987C6.47325 13.7169 4.78326 13.2289 3.39935 12.8484C1.87368 12.4291 1.779 10.2446 3.31022 9.7342L19.6233 4.29656ZM14.6938 22.1343L20.1315 5.82123L3.81844 11.2589C3.81759 11.2592 3.81679 11.2595 3.81606 11.2597C3.81522 11.2638 3.81462 11.2693 3.81482 11.2755C3.81506 11.2832 3.81642 11.29 3.81804 11.2948C3.81826 11.2955 3.81849 11.2961 3.8187 11.2967C3.82037 11.2973 3.82255 11.298 3.82531 11.2988C5.21942 11.682 6.9435 12.1794 8.41643 12.6757C9.15178 12.9234 9.83762 13.1753 10.3936 13.4165C10.6714 13.537 10.9276 13.6595 11.1462 13.7824C11.3545 13.8994 11.5733 14.041 11.7424 14.2103C11.9116 14.3795 12.0533 14.5981 12.1704 14.8065C12.2932 15.0251 12.4157 15.2813 12.5363 15.5591C12.7774 16.115 13.0292 16.801 13.277 17.5362C13.7733 19.0092 14.2708 20.7332 14.6539 22.1274C14.6547 22.1302 14.6554 22.1323 14.656 22.134C14.6566 22.1342 14.6572 22.1344 14.6578 22.1347C14.6627 22.1363 14.6694 22.1376 14.6771 22.1379C14.6834 22.1381 14.6889 22.1375 14.693 22.1366C14.6932 22.1359 14.6935 22.1351 14.6938 22.1343Z" fill="white"/>
</svg>
